<?xml version="1.0" standalone="no"?>
<!DOCTYPE svg PUBLIC "-//W3C//DTD SVG 20010904//EN"
 "http://www.w3.org/TR/2001/REC-SVG-20010904/DTD/svg10.dtd">
<svg version="1.0" xmlns="http://www.w3.org/2000/svg"
 width="720.000000pt" height="720.000000pt" viewBox="0 0 720.000000 720.000000"
 preserveAspectRatio="xMidYMid meet">
<metadata>
Created by potrace 1.11, written by Peter Selinger 2001-2013
</metadata>
<g transform="translate(0.000000,720.000000) scale(0.100000,-0.100000)"
fill="#000000" stroke="none">
<path d="M3489 7180 c-36 -9 -90 -33 -120 -53 -30 -20 -197 -179 -371 -354
-174 -175 -346 -346 -381 -381 l-64 -64 -109 109 c-114 113 -179 156 -291 193
-183 59 -435 42 -603 -40 -214 -106 -344 -297 -385 -565 -5 -27 -9 -285 -9
-573 l-2 -523 -536 -537 c-415 -416 -542 -549 -563 -590 -75 -145 -66 -316 24
-442 14 -19 261 -272 550 -562 l525 -527 2 -408 c1 -346 5 -474 19 -537 32
-151 105 -286 203 -378 139 -130 305 -193 513 -196 63 0 132 3 154 8 22 5 54
11 70 13 39 6 55 12 148 55 42 19 77 39 77 44 0 4 4 8 10 8 11 0 38 21 80 62
l27 27 429 -430 c483 -484 499 -498 620 -524 107 -22 230 -2 318 52 22 14 263
247 534 517 270 270 496 490 501 489 5 -1 44 -38 87 -81 132 -131 212 -182
349 -218 99 -26 321 -26 425 0 270 67 452 262 516 552 15 69 18 146 19 617 1
296 4 540 6 542 2 3 196 197 431 432 361 363 431 437 456 488 63 128 63 266 0
395 -16 32 -150 174 -453 478 -236 238 -432 435 -434 437 -2 3 -5 294 -6 647
-2 354 -5 655 -7 669 -29 162 -88 299 -173 398 -77 90 -220 178 -342 210 -88
24 -266 32 -363 18 -264 -40 -478 -214 -564 -461 -3 -10 -8 -17 -11 -15 -2 2
-217 216 -477 475 -397 395 -482 474 -528 496 -98 45 -200 55 -301 28z"/>
</g>
</svg>
